<?xml version="1.0" encoding="utf-8"?>
<!-- Generator: Adobe Illustrator 25.2.0, SVG Export Plug-In . SVG Version: 6.00 Build 0)  -->
<svg version="1.1" id="Layer_1" xmlns="http://www.w3.org/2000/svg" xmlns:xlink="http://www.w3.org/1999/xlink" x="0px" y="0px"
	 viewBox="0 0 500 500" style="enable-background:new 0 0 500 500;" xml:space="preserve">
<style type="text/css">
	.st0{fill:#4D4D4D;}
</style>
<path class="st0" d="M463.7,396.5c39.1-39.1,44.3-101.6,12.6-146.5c31.7-44.9,26.5-107.4-12.6-146.5c-11.7-11.7-25.5-20.6-41-26.3
	c-5.7-15.4-14.5-29.2-26.3-41C357.4-2.8,294.9-8,250,23.7C205.1-8,142.6-2.8,103.5,36.3C91.8,48,83,61.8,77.2,77.2
	C61.8,83,48,91.8,36.3,103.5C-2.8,142.6-8,205.1,23.7,250C-8,294.9-2.8,357.4,36.3,396.5c11.7,11.7,25.5,20.6,41,26.3
	c5.7,15.4,14.5,29.2,26.3,41c39.1,39.1,101.6,44.3,146.5,12.6c44.9,31.7,107.4,26.5,146.5-12.6c11.7-11.7,20.6-25.5,26.3-41
	C438.2,417,452,408.2,463.7,396.5z M458.2,390.9c-11.3,11.3-24.7,19.8-39.8,25.1c-17.3,6.1-36,7.6-54.1,4.4
	c-14.5-2.6-27.9-8-40.1-16l28.6-28.6c8,4,16.8,6.4,25.7,7c17.7,1.1,34.9-4.6,48.2-16.1c1.4-1.2,2.6-2.3,3.7-3.4
	c20.4-20.4,25.4-51.9,12.6-77.6l20.7-20.7c2.7-2.7,5.2-5.5,7.6-8.4C499.3,298.2,494,355.1,458.2,390.9z M90,181.3l-27.1,27.1
	c-9.6-21.5-5.5-47,10.5-64.4C76.6,157.4,82.3,170.1,90,181.3z M98.2,179.5C89.1,167,83,153,80,137.9c10.7-8.5,23.8-13.1,37.5-12.9
	c1,8.7,3.8,17.2,8,24.8l0.1,0.2c6.1,9.4,12.2,17,19.1,23.9c7.5,7.5,12,11,13.1,11.8c1.9,1.7,17,14.9,35.4,10.5l2.3-0.6l0.6-2.3
	c3.5-14.6-4.1-27.1-8.2-32.6l27.7-27.7c4.8,5.9,15.3,19.9,21.7,38.4c6,17.2,7.1,34,3.3,50c-1.2,4.9-2.8,9.8-4.9,14.5
	c-4.7,2.1-9.6,3.7-14.5,4.9c-16,3.8-32.8,2.7-50-3.3c-24.5-8.5-41.3-24.2-41.5-24.3l-0.4-0.3c0,0-4.9-3.5-12.8-11.4
	C107.6,192.2,101.6,184.4,98.2,179.5z M144.1,73.4c17.4-16,42.9-20.1,64.4-10.5L181.3,90C170.1,82.3,157.4,76.6,144.1,73.4z
	 M410,318.7l27.1-27.1c9.6,21.5,5.5,47-10.5,64.4C423.4,342.6,417.7,329.9,410,318.7z M401.8,320.5C410.9,333,417,347,420,362.1
	c-10.7,8.5-23.8,13.1-37.5,12.9c-1-8.7-3.8-17.2-8-24.8l-0.1-0.2c-6-9.2-12.3-17.1-19.1-23.9c-7.5-7.5-12-11-13.1-11.8
	c-1.9-1.7-16.9-14.9-35.4-10.5l-2.3,0.6l-0.6,2.3c-3.5,14.6,4.1,27.1,8.2,32.6L284.2,367c-4.8-5.9-15.3-19.9-21.7-38.4
	c-6-17.2-7.1-34-3.3-50c1.2-4.9,2.8-9.8,4.9-14.5c4.7-2.1,9.6-3.7,14.5-4.9c16-3.8,32.8-2.7,50,3.3c24.5,8.5,41.3,24.2,41.5,24.3
	l0.4,0.3c0,0,4.9,3.5,12.8,11.4C392.4,307.8,398.4,315.6,401.8,320.5z M369.9,358.8c2.2,5,3.7,10.3,4.5,15.6
	c-5.4-0.8-10.7-2.3-15.6-4.5L369.9,358.8z M317.6,333.6c-3.1-4.4-7.9-13-6.6-22.7c9.7-1.3,18.3,3.5,22.7,6.6L317.6,333.6z
	 M127.5,278.7L98.8,250l28.7-28.7c6,5,21,16.4,41.4,23.5c7.4,2.6,14.7,4.3,21.9,5.2c-7.2,0.9-14.6,2.6-21.9,5.2
	C148.6,262.2,133.5,273.6,127.5,278.7z M242.4,240.5c2.6-5.6,4.6-11.4,5.9-17.3c0.7-3.1,1.2-6.2,1.6-9.3c0.4,3.1,0.9,6.3,1.6,9.3
	c1.4,5.9,3.4,11.7,5.9,17.3l0.6,1.3l1.3,0.6c5.6,2.6,11.4,4.6,17.3,5.9c3.1,0.7,6.2,1.2,9.3,1.6c-3.1,0.4-6.3,0.9-9.3,1.6
	c-5.9,1.4-11.7,3.4-17.3,5.9l-1.3,0.6l-0.6,1.3c-2.6,5.6-4.6,11.4-5.9,17.3c-0.7,3.1-1.2,6.2-1.6,9.3c-0.4-3.1-0.9-6.3-1.6-9.3
	c-1.4-5.9-3.4-11.7-5.9-17.3l-0.6-1.3l-1.3-0.6c-5.6-2.6-11.4-4.6-17.3-5.9c-3.1-0.7-6.2-1.2-9.3-1.6c3.1-0.4,6.3-0.9,9.3-1.6
	c5.9-1.4,11.7-3.4,17.3-5.9l1.3-0.6L242.4,240.5z M372.5,221.3l28.7,28.7l-28.7,28.7c-6-5-21-16.4-41.4-23.5
	c-7.4-2.6-14.7-4.3-21.9-5.2c7.2-0.9,14.6-2.6,21.9-5.2C351.5,237.8,366.5,226.4,372.5,221.3z M410,181.3
	c7.8-11.4,13.4-23.8,16.6-37.2c16,17.4,20.1,42.9,10.5,64.4L410,181.3z M402.2,184.6l31.1,31.1c-2.4,3.8-5.2,7.4-8.3,10.6
	l-18.2,18.2l-31.2-31.2L342.3,180l-19.8-19.8c1.8-2.1,4.7-5.4,9.1-9.8c5.9-5.9,12.3-11.1,20-16.4l16.6,16.6L402.2,184.6z
	 M333.6,182.4c-4.4,3.1-13,7.9-22.7,6.6c-1.3-9.7,3.5-18.3,6.6-22.7L333.6,182.4z M358.8,130.1c5-2.2,10.3-3.7,15.6-4.5
	c-0.8,5.4-2.3,10.7-4.5,15.6L358.8,130.1z M350.3,125.6l-0.2,0.1c-9.2,6-17.1,12.3-23.9,19.1c-7.5,7.5-11,12-11.8,13.1
	c-1.7,1.9-14.9,17-10.5,35.4l0.6,2.3l2.3,0.6c14.6,3.5,27.1-4.1,32.6-8.2l27.7,27.7c-5.9,4.8-19.9,15.2-38.4,21.7
	c-17.2,6-34,7.1-50,3.3c-4.9-1.2-9.8-2.8-14.5-4.9c-2.1-4.7-3.7-9.6-4.9-14.5c-3.8-16-2.7-32.8,3.3-50c8.5-24.5,24.2-41.3,24.3-41.5
	l0.3-0.4c0,0,3.6-4.9,11.4-12.8c9.2-9.2,16.9-15.2,21.9-18.6C333,89.1,347,83,362.2,80c8.5,10.7,13.1,23.8,12.9,37.5
	C366.4,118.6,357.9,121.3,350.3,125.6z M318.7,90l-27.1-27.1c21.5-9.6,47-5.5,64.4,10.5C342.5,76.6,330,82.2,318.7,90z M278.7,127.5
	c-5,6-16.4,21-23.5,41.4c-2.6,7.4-4.3,14.7-5.2,21.9c-0.9-7.2-2.6-14.6-5.2-21.9c-7.1-20.4-18.5-35.4-23.5-41.4L250,98.8
	L278.7,127.5z M182.4,166.4c3.1,4.4,7.9,13,6.6,22.7c-9.7,1.3-18.3-3.5-22.7-6.6L182.4,166.4z M213.2,124.5L180,157.7l-19.8,19.8
	c-2.1-1.8-5.4-4.7-9.8-9.1c-5.9-5.9-11.1-12.3-16.4-20l16.6-16.6l34-34l31.1-31.1c3.8,2.4,7.4,5.2,10.6,8.3l18.2,18.2L213.2,124.5z
	 M130.1,141.2c-2.2-5-3.7-10.3-4.5-15.6c5.4,0.8,10.7,2.3,15.6,4.5L130.1,141.2z M90,318.7c-7.8,11.4-13.4,23.8-16.6,37.2
	c-16-17.4-20.1-42.9-10.5-64.4L90,318.7z M97.8,315.4l-31.1-31.1c2.4-3.8,5.2-7.4,8.3-10.6l18.2-18.2l31.2,31.3l33.2,33.2l19.8,19.8
	c-1.8,2.1-4.7,5.4-9.1,9.8c-5.9,5.9-12.3,11.2-20,16.4l-16.6-16.6L97.8,315.4z M166.4,317.6c4.4-3.1,13-7.9,22.7-6.6
	c1.3,9.7-3.5,18.3-6.6,22.7L166.4,317.6z M141.2,369.9c-5,2.2-10.3,3.7-15.6,4.5c0.8-5.4,2.3-10.7,4.5-15.6L141.2,369.9z
	 M149.7,374.4l0.2-0.1c9.2-6,17.1-12.3,23.9-19.1c7.5-7.5,11-12,11.8-13.1c1.7-1.8,14.9-17,10.5-35.4l-0.6-2.3l-2.3-0.6
	c-14.6-3.5-27.1,4.1-32.6,8.2L133,284.2c5.9-4.8,20-15.3,38.4-21.7c17.2-6,34-7.1,50-3.3c4.9,1.2,9.8,2.8,14.5,4.9
	c2.1,4.7,3.7,9.6,4.9,14.5c3.8,16,2.7,32.8-3.3,50c-8.5,24.5-24.2,41.3-24.3,41.5l-0.3,0.4c0,0-3.6,4.9-11.4,12.8
	c-9.2,9.2-16.9,15.2-21.9,18.6C167,410.9,153,417,137.8,420c-8.5-10.7-13.1-23.8-12.9-37.5C133.6,381.4,142.1,378.7,149.7,374.4z
	 M181.3,410l27.1,27.1c-21.5,9.6-47,5.5-64.4-10.5C157.5,423.4,170,417.8,181.3,410z M221.3,372.5c5-6,16.4-21,23.5-41.4
	c2.6-7.4,4.3-14.7,5.2-21.9c0.9,7.2,2.6,14.6,5.2,21.9c7,20.1,18.4,35.3,23.5,41.4L250,401.2L221.3,372.5z M286.8,375.5l33.2-33.2
	l19.8-19.8c2.1,1.8,5.4,4.7,9.8,9.1c5.9,5.9,11.2,12.3,16.4,20l-16.6,16.6l-34,34l-31.1,31.1c-3.8-2.4-7.4-5.2-10.6-8.3l-18.2-18.2
	L286.8,375.5z M318.7,410c11.3,7.7,23.9,13.3,37.2,16.6c-17.4,16-42.9,20.1-64.4,10.5L318.7,410z M468.4,247.7L468.4,247.7
	c-3.1,4.2-6.5,8.2-10.2,11.8l-22.7,22.7l-30,30c-4.7-6.3-10.4-12.8-16.7-19.1c-4.3-4.3-7.8-7.4-10.2-9.4l30.9-30.9l21-21
	c4.4-4.4,8.1-9.4,11.2-14.8c14.6-26.1,10-59.1-11.2-80.2c-0.6-0.6-1.3-1.3-2-1.9c2.5-16,1.6-32.3-2.6-47.8
	c12,5.3,22.9,12.7,32.3,22.1C495.2,146.1,499.6,205.7,468.4,247.7z M390.9,41.8c11.3,11.3,19.8,24.7,25.1,39.8
	c6.1,17.3,7.6,36,4.4,54.1c-2.6,14.5-8,27.9-16,40.1l-28.6-28.6c4-8,6.4-16.8,7-25.7c1.1-17.7-4.6-34.9-16.1-48.2
	c-1.2-1.4-2.3-2.6-3.4-3.7c-20.4-20.4-51.9-25.4-77.6-12.6L265,36.3c-2.7-2.7-5.5-5.2-8.4-7.6C298.2,0.7,355.1,6,390.9,41.8z
	 M247.7,31.6L247.7,31.6c4.2,3.1,8.2,6.6,11.8,10.2l22.7,22.7l30,30c-6.3,4.7-12.8,10.4-19.1,16.7c-4.3,4.3-7.4,7.8-9.4,10.2
	l-30.9-30.9l-21-21c-4.4-4.4-9.4-8.1-14.8-11.2c-26.1-14.6-59.1-10-80.2,11.2c-0.6,0.6-1.3,1.3-1.9,2c-16-2.5-32.3-1.6-47.8,2.6
	c5.3-12,12.7-22.9,22.1-32.3C146.1,4.8,205.7,0.4,247.7,31.6z M41.8,109.1C53.2,97.7,66.5,89.3,81.6,84c17.3-6.1,36-7.6,54.1-4.4
	c14.5,2.6,27.9,8,40.1,16l-28.6,28.6c-8-4-16.8-6.4-25.7-7c-17.7-1.1-34.9,4.6-48.2,16.1c-1.4,1.2-2.6,2.3-3.7,3.4
	c-20.4,20.4-25.4,51.9-12.6,77.6L36.3,235c-2.7,2.7-5.2,5.5-7.6,8.4C0.7,201.8,6,144.9,41.8,109.1z M31.6,252.3L31.6,252.3
	c3.1-4.2,6.5-8.2,10.2-11.8l22.7-22.7l30-30c4.7,6.3,10.4,12.8,16.7,19.1c4.3,4.3,7.8,7.4,10.2,9.4l-30.9,30.9l-21,21
	c-4.4,4.4-8.1,9.4-11.2,14.8c-14.6,26.1-10,59.1,11.2,80.2c0.6,0.6,1.3,1.3,2,1.9c-2.5,16-1.6,32.3,2.6,47.8
	c-12-5.3-22.9-12.7-32.3-22.1C4.8,353.9,0.4,294.3,31.6,252.3z M109.1,458.2c-11.3-11.3-19.8-24.7-25.1-39.8
	c-6.1-17.3-7.6-35.9-4.4-54.1c2.6-14.5,8-27.9,16-40.1l28.6,28.6c-4,8-6.4,16.8-7,25.7c-1.1,17.7,4.6,34.9,16.1,48.2
	c1.2,1.4,2.3,2.6,3.4,3.7c20.4,20.4,51.9,25.4,77.6,12.6l20.7,20.7c2.7,2.7,5.5,5.2,8.4,7.6C201.8,499.3,144.9,494,109.1,458.2z
	 M252.3,468.4L252.3,468.4c-4.2-3.1-8.2-6.6-11.8-10.2l-22.7-22.7l-30-30c6.3-4.7,12.8-10.4,19.1-16.7c4.3-4.3,7.4-7.8,9.4-10.2
	l30.9,30.9l21,21c4.4,4.4,9.4,8.1,14.8,11.2c26.1,14.6,59.1,10,80.2-11.2c0.6-0.6,1.3-1.3,1.9-2c16,2.5,32.3,1.6,47.9-2.6
	c-5.3,12-12.7,22.9-22.1,32.3C353.9,495.2,294.3,499.6,252.3,468.4z"/>
</svg>
