<svg width="152" height="177" viewBox="0 0 152 177" fill="none" xmlns="http://www.w3.org/2000/svg">
<mask id="mask0_13_33" style="mask-type:luminance" maskUnits="userSpaceOnUse" x="12" y="12" width="128" height="155">
<path d="M139.093 12H12V167H139.093V12Z" fill="white"/>
</mask>
<g mask="url(#mask0_13_33)">
<path d="M119.48 24.5809H110.825C107.705 24.5809 105.176 26.7862 105.176 29.5065V56.9358C105.176 59.6561 107.705 61.8613 110.825 61.8613H119.48C122.6 61.8613 125.129 59.6561 125.129 56.9358V29.5065C125.129 26.7862 122.6 24.5809 119.48 24.5809Z" fill="white"/>
<path d="M87.1186 164.509V138.524H123.804L91.9848 166.269C91.586 166.617 91.0778 166.853 90.5246 166.949C89.9714 167.045 89.398 166.996 88.877 166.807C88.356 166.619 87.9108 166.3 87.5978 165.89C87.2848 165.482 87.118 165.001 87.1186 164.509Z" fill="white"/>
<path d="M125.769 136.909H87.1186V140.024H122.012L125.769 136.909Z" fill="white"/>
<path d="M133.715 59.9712L80.9212 13.9337C79.4934 12.6949 77.5611 11.9995 75.5469 11.9995C73.5327 11.9995 71.6004 12.6949 70.1726 13.9337L17.3792 59.9712C14.1576 63.0954 12.2593 67.0869 12 71.2822V79.3914C40.8429 98.1024 75.8486 108.184 111.799 108.134C120.941 108.135 130.069 107.487 139.091 106.197V71.2822C138.829 67.088 136.933 63.0976 133.715 59.9712Z" fill="white"/>
<path d="M111.8 115.59C75.8505 115.64 40.8448 105.558 12.0017 86.8477V130.652C12.0083 132.409 12.8111 134.091 14.2351 135.332C15.659 136.574 17.5884 137.274 19.6021 137.279H131.494C133.507 137.274 135.436 136.573 136.86 135.332C138.284 134.09 139.087 132.408 139.093 130.652V113.653C130.071 114.944 120.943 115.592 111.8 115.59Z" fill="white"/>
</g>
</svg>
