<svg width="303" height="55" viewBox="0 0 303 55" fill="none" xmlns="http://www.w3.org/2000/svg">
<path d="M32.642 1.63636H45.2727V35.4119C45.2727 39.3153 44.3438 42.7159 42.4858 45.6136C40.6278 48.4943 38.0369 50.7273 34.7131 52.3125C31.3892 53.8807 27.5284 54.6648 23.1307 54.6648C18.6818 54.6648 14.7955 53.8807 11.4716 52.3125C8.14773 50.7273 5.56534 48.4943 3.72443 45.6136C1.88352 42.7159 0.963068 39.3153 0.963068 35.4119V1.63636H13.6193V34.3125C13.6193 36.1193 14.0114 37.7301 14.7955 39.1449C15.5966 40.5597 16.7131 41.6676 18.1449 42.4688C19.5767 43.2699 21.2386 43.6705 23.1307 43.6705C25.0227 43.6705 26.6761 43.2699 28.0909 42.4688C29.5227 41.6676 30.6392 40.5597 31.4403 39.1449C32.2415 37.7301 32.642 36.1193 32.642 34.3125V1.63636ZM81.5092 17.3352C81.3388 15.4602 80.5803 14.0028 79.2337 12.9631C77.9041 11.9063 76.0036 11.3778 73.532 11.3778C71.8956 11.3778 70.532 11.5909 69.4411 12.017C68.3501 12.4432 67.532 13.0313 66.9865 13.7812C66.4411 14.5142 66.1598 15.358 66.1428 16.3125C66.1087 17.0966 66.2621 17.7869 66.603 18.3835C66.9609 18.9801 67.4723 19.5085 68.1371 19.9688C68.8189 20.4119 69.6371 20.804 70.5916 21.1449C71.5462 21.4858 72.62 21.7841 73.8132 22.0398L78.3132 23.0625C80.9041 23.625 83.1882 24.375 85.1655 25.3125C87.1598 26.25 88.8303 27.3665 90.1768 28.6619C91.5405 29.9574 92.5717 31.4489 93.2706 33.1364C93.9695 34.8239 94.3274 36.7159 94.3445 38.8125C94.3274 42.1193 93.4922 44.9574 91.8388 47.3267C90.1854 49.696 87.8075 51.5114 84.7053 52.7727C81.62 54.0341 77.8956 54.6648 73.532 54.6648C69.1513 54.6648 65.3331 54.0085 62.0774 52.696C58.8217 51.3835 56.2905 49.3892 54.4837 46.7131C52.6768 44.0369 51.7479 40.6534 51.6967 36.5625H63.8161C63.9183 38.25 64.37 39.6562 65.1712 40.7812C65.9723 41.9062 67.0717 42.7585 68.4695 43.3381C69.8842 43.9176 71.5206 44.2074 73.3786 44.2074C75.0831 44.2074 76.532 43.9773 77.7251 43.517C78.9354 43.0568 79.8643 42.4176 80.5121 41.5994C81.1598 40.7812 81.4922 39.8437 81.5092 38.7869C81.4922 37.7983 81.1854 36.9545 80.5888 36.2557C79.9922 35.5398 79.0717 34.9261 77.8274 34.4148C76.6001 33.8864 75.032 33.4006 73.1229 32.9574L67.6513 31.679C63.1172 30.6392 59.5462 28.9602 56.9382 26.642C54.3303 24.3068 53.0348 21.1534 53.0518 17.1818C53.0348 13.9432 53.9041 11.1051 55.6598 8.66761C57.4155 6.23011 59.8445 4.32954 62.9467 2.96591C66.049 1.60227 69.5859 0.920453 73.5575 0.920453C77.6143 0.920453 81.1342 1.61079 84.1172 2.99147C87.1172 4.35511 89.4439 6.27273 91.0973 8.74432C92.7507 11.2159 93.5945 14.0795 93.6286 17.3352H81.5092ZM100.737 54V1.63636H122.572C126.492 1.63636 129.773 2.19034 132.415 3.29829C135.075 4.40625 137.069 5.95738 138.398 7.9517C139.745 9.94602 140.418 12.2557 140.418 14.8807C140.418 16.875 140.001 18.6562 139.165 20.2244C138.33 21.7756 137.18 23.0625 135.714 24.0852C134.248 25.108 132.552 25.8239 130.626 26.233V26.7443C132.739 26.8466 134.691 27.4176 136.481 28.4574C138.288 29.4972 139.737 30.946 140.827 32.804C141.918 34.6449 142.464 36.8267 142.464 39.3494C142.464 42.1619 141.748 44.6761 140.316 46.892C138.884 49.0909 136.813 50.8295 134.103 52.108C131.393 53.3693 128.103 54 124.234 54H100.737ZM113.393 43.7983H121.217C123.961 43.7983 125.981 43.2784 127.276 42.2386C128.589 41.1989 129.245 39.75 129.245 37.892C129.245 36.5455 128.93 35.3864 128.299 34.4148C127.668 33.4261 126.773 32.6676 125.614 32.1392C124.455 31.5937 123.066 31.321 121.447 31.321H113.393V43.7983ZM113.393 23.1648H120.398C121.779 23.1648 123.006 22.9347 124.08 22.4744C125.154 22.0142 125.989 21.3494 126.586 20.4801C127.2 19.6108 127.506 18.5625 127.506 17.3352C127.506 15.5795 126.884 14.1989 125.64 13.1932C124.396 12.1875 122.717 11.6847 120.603 11.6847H113.393V23.1648ZM159.876 54H146.273L163.941 1.63636H180.79L198.458 54H184.856L172.558 14.8295H172.148L159.876 54ZM158.06 33.392H186.492V43.0057H158.06V33.392ZM248.661 1.63636V54H237.923L217.085 23.7784H216.752V54H204.096V1.63636H214.988L235.596 31.8068H236.031V1.63636H248.661ZM256.619 54V1.63636H269.276V23.7784H269.966L287.276 1.63636H302.182L283.619 25.0057L302.514 54H287.378L274.338 33.4176L269.276 39.8097V54H256.619Z" fill="white"/>
</svg>
