<svg width="248" height="61" viewBox="0 0 248 61" fill="none" xmlns="http://www.w3.org/2000/svg">
<path d="M13.3864 47L0.25 0.454544H9.31818L17.7045 34.6591H18.1364L27.0909 0.454544H35.3409L44.3182 34.6818H44.7273L53.1136 0.454544H62.1818L49.0455 47H40.7273L31.4091 14.3409H31.0455L21.7045 47H13.3864ZM79.5568 47.6818C76.0568 47.6818 73.0341 46.9545 70.4886 45.5C67.9583 44.0303 66.0114 41.9545 64.6477 39.2727C63.2841 36.5758 62.6023 33.4015 62.6023 29.75C62.6023 26.1591 63.2841 23.0076 64.6477 20.2955C66.0265 17.5682 67.9508 15.447 70.4205 13.9318C72.8902 12.4015 75.7917 11.6364 79.125 11.6364C81.2765 11.6364 83.3068 11.9848 85.2159 12.6818C87.1402 13.3636 88.8371 14.4242 90.3068 15.8636C91.7917 17.303 92.9583 19.1364 93.8068 21.3636C94.6553 23.5758 95.0795 26.2121 95.0795 29.2727V31.7955H66.4659V26.25H87.1932C87.178 24.6742 86.8371 23.2727 86.1705 22.0455C85.5038 20.803 84.572 19.8258 83.375 19.1136C82.1932 18.4015 80.8144 18.0455 79.2386 18.0455C77.5568 18.0455 76.0795 18.4545 74.8068 19.2727C73.5341 20.0758 72.5417 21.1364 71.8295 22.4545C71.1326 23.7576 70.7765 25.1894 70.7614 26.75V31.5909C70.7614 33.6212 71.1326 35.3636 71.875 36.8182C72.6174 38.2576 73.6553 39.3636 74.9886 40.1364C76.322 40.8939 77.8826 41.2727 79.6705 41.2727C80.8674 41.2727 81.9508 41.1061 82.9205 40.7727C83.8902 40.4242 84.7311 39.9167 85.4432 39.25C86.1553 38.5833 86.6932 37.7576 87.0568 36.7727L94.7386 37.6364C94.2538 39.6667 93.3295 41.4394 91.9659 42.9545C90.6174 44.4545 88.8902 45.6212 86.7841 46.4545C84.678 47.2727 82.2689 47.6818 79.5568 47.6818ZM102.04 47V12.0909H109.903V18.0227H110.312C111.04 16.0227 112.244 14.4621 113.926 13.3409C115.608 12.2045 117.616 11.6364 119.949 11.6364C122.312 11.6364 124.305 12.2121 125.926 13.3636C127.563 14.5 128.714 16.053 129.381 18.0227H129.744C130.517 16.0833 131.82 14.5379 133.653 13.3864C135.502 12.2197 137.691 11.6364 140.222 11.6364C143.434 11.6364 146.055 12.6515 148.085 14.6818C150.116 16.7121 151.131 19.6742 151.131 23.5682V47H142.881V24.8409C142.881 22.6742 142.305 21.0909 141.153 20.0909C140.002 19.0758 138.593 18.5682 136.926 18.5682C134.941 18.5682 133.388 19.1894 132.267 20.4318C131.161 21.6591 130.608 23.2576 130.608 25.2273V47H122.54V24.5C122.54 22.697 121.994 21.2576 120.903 20.1818C119.828 19.1061 118.419 18.5682 116.676 18.5682C115.494 18.5682 114.419 18.8712 113.449 19.4773C112.479 20.0682 111.706 20.9091 111.131 22C110.555 23.0758 110.267 24.3333 110.267 25.7727V47H102.04ZM159.841 47V0.454544H168.068V17.8636H168.409C168.833 17.0152 169.432 16.1136 170.205 15.1591C170.977 14.1894 172.023 13.3636 173.341 12.6818C174.659 11.9848 176.341 11.6364 178.386 11.6364C181.083 11.6364 183.515 12.3258 185.682 13.7045C187.864 15.0682 189.591 17.0909 190.864 19.7727C192.152 22.4394 192.795 25.7121 192.795 29.5909C192.795 33.4242 192.167 36.6818 190.909 39.3636C189.652 42.0455 187.939 44.0909 185.773 45.5C183.606 46.9091 181.152 47.6136 178.409 47.6136C176.409 47.6136 174.75 47.2803 173.432 46.6136C172.114 45.947 171.053 45.1439 170.25 44.2045C169.462 43.25 168.848 42.3485 168.409 41.5H167.932V47H159.841ZM167.909 29.5455C167.909 31.803 168.227 33.7803 168.864 35.4773C169.515 37.1742 170.447 38.5 171.659 39.4545C172.886 40.3939 174.371 40.8636 176.114 40.8636C177.932 40.8636 179.455 40.3788 180.682 39.4091C181.909 38.4242 182.833 37.0833 183.455 35.3864C184.091 33.6742 184.409 31.7273 184.409 29.5455C184.409 27.3788 184.098 25.4545 183.477 23.7727C182.856 22.0909 181.932 20.7727 180.705 19.8182C179.477 18.8636 177.947 18.3864 176.114 18.3864C174.356 18.3864 172.864 18.8485 171.636 19.7727C170.409 20.697 169.477 21.9924 168.841 23.6591C168.22 25.3258 167.909 27.2879 167.909 29.5455ZM208.017 0.454544V47H199.79V0.454544H208.017ZM221.591 60.0909C220.47 60.0909 219.432 60 218.477 59.8182C217.538 59.6515 216.788 59.4545 216.227 59.2273L218.136 52.8182C219.333 53.1667 220.402 53.3333 221.341 53.3182C222.28 53.303 223.106 53.0076 223.818 52.4318C224.545 51.8712 225.159 50.9318 225.659 49.6136L226.364 47.7273L213.705 12.0909H222.432L230.477 38.4545H230.841L238.909 12.0909H247.659L233.682 51.2273C233.03 53.0758 232.167 54.6591 231.091 55.9773C230.015 57.3106 228.697 58.3258 227.136 59.0227C225.591 59.7348 223.742 60.0909 221.591 60.0909Z" fill="#9E9E9E"/>
</svg>
