<svg width="143" height="55" viewBox="0 0 143 55" fill="none" xmlns="http://www.w3.org/2000/svg">
<path d="M32.642 1.63636H45.2727V35.4119C45.2727 39.3153 44.3438 42.7159 42.4858 45.6136C40.6278 48.4943 38.0369 50.7273 34.7131 52.3125C31.3892 53.8807 27.5284 54.6648 23.1307 54.6648C18.6818 54.6648 14.7955 53.8807 11.4716 52.3125C8.14773 50.7273 5.56534 48.4943 3.72443 45.6136C1.88352 42.7159 0.963068 39.3153 0.963068 35.4119V1.63636H13.6193V34.3125C13.6193 36.1193 14.0114 37.7301 14.7955 39.1449C15.5966 40.5597 16.7131 41.6676 18.1449 42.4688C19.5767 43.2699 21.2386 43.6705 23.1307 43.6705C25.0227 43.6705 26.6761 43.2699 28.0909 42.4688C29.5227 41.6676 30.6392 40.5597 31.4403 39.1449C32.2415 37.7301 32.642 36.1193 32.642 34.3125V1.63636ZM53.2053 54V1.63636H75.0405C78.9609 1.63636 82.2422 2.19034 84.8842 3.29829C87.5433 4.40625 89.5376 5.95738 90.8672 7.9517C92.2138 9.94602 92.8871 12.2557 92.8871 14.8807C92.8871 16.875 92.4695 18.6562 91.6342 20.2244C90.799 21.7756 89.6484 23.0625 88.1825 24.0852C86.7166 25.108 85.0206 25.8239 83.0945 26.233V26.7443C85.2081 26.8466 87.1598 27.4176 88.9496 28.4574C90.7564 29.4972 92.2053 30.946 93.2962 32.804C94.3871 34.6449 94.9325 36.8267 94.9325 39.3494C94.9325 42.1619 94.2166 44.6761 92.7848 46.892C91.353 49.0909 89.282 50.8295 86.5717 52.108C83.8615 53.3693 80.5717 54 76.7024 54H53.2053ZM65.8615 43.7983H73.6854C76.4297 43.7983 78.4496 43.2784 79.745 42.2386C81.0575 41.1989 81.7138 39.75 81.7138 37.892C81.7138 36.5455 81.3984 35.3864 80.7678 34.4148C80.1371 33.4261 79.2422 32.6676 78.0831 32.1392C76.924 31.5937 75.5348 31.321 73.9155 31.321H65.8615V43.7983ZM65.8615 23.1648H72.8672C74.2479 23.1648 75.4751 22.9347 76.549 22.4744C77.6229 22.0142 78.4581 21.3494 79.0547 20.4801C79.6683 19.6108 79.9751 18.5625 79.9751 17.3352C79.9751 15.5795 79.353 14.1989 78.1087 13.1932C76.8643 12.1875 75.1854 11.6847 73.0717 11.6847H65.8615V23.1648ZM129.322 17.3352C129.151 15.4602 128.393 14.0028 127.046 12.9631C125.717 11.9063 123.816 11.3778 121.344 11.3778C119.708 11.3778 118.344 11.5909 117.254 12.017C116.163 12.4432 115.344 13.0313 114.799 13.7812C114.254 14.5142 113.972 15.358 113.955 16.3125C113.921 17.0966 114.075 17.7869 114.415 18.3835C114.773 18.9801 115.285 19.5085 115.95 19.9688C116.631 20.4119 117.45 20.804 118.404 21.1449C119.359 21.4858 120.433 21.7841 121.626 22.0398L126.126 23.0625C128.717 23.625 131.001 24.375 132.978 25.3125C134.972 26.25 136.643 27.3665 137.989 28.6619C139.353 29.9574 140.384 31.4489 141.083 33.1364C141.782 34.8239 142.14 36.7159 142.157 38.8125C142.14 42.1193 141.305 44.9574 139.651 47.3267C137.998 49.696 135.62 51.5114 132.518 52.7727C129.433 54.0341 125.708 54.6648 121.344 54.6648C116.964 54.6648 113.146 54.0085 109.89 52.696C106.634 51.3835 104.103 49.3892 102.296 46.7131C100.489 44.0369 99.5604 40.6534 99.5092 36.5625H111.629C111.731 38.25 112.183 39.6562 112.984 40.7812C113.785 41.9062 114.884 42.7585 116.282 43.3381C117.697 43.9176 119.333 44.2074 121.191 44.2074C122.896 44.2074 124.344 43.9773 125.538 43.517C126.748 43.0568 127.677 42.4176 128.325 41.5994C128.972 40.7812 129.305 39.8437 129.322 38.7869C129.305 37.7983 128.998 36.9545 128.401 36.2557C127.805 35.5398 126.884 34.9261 125.64 34.4148C124.413 33.8864 122.844 33.4006 120.935 32.9574L115.464 31.679C110.93 30.6392 107.359 28.9602 104.751 26.642C102.143 24.3068 100.847 21.1534 100.864 17.1818C100.847 13.9432 101.717 11.1051 103.472 8.66761C105.228 6.23011 107.657 4.32954 110.759 2.96591C113.862 1.60227 117.398 0.920453 121.37 0.920453C125.427 0.920453 128.947 1.61079 131.93 2.99147C134.93 4.35511 137.256 6.27273 138.91 8.74432C140.563 11.2159 141.407 14.0795 141.441 17.3352H129.322Z" fill="white"/>
</svg>
