<svg width="387" height="40" viewBox="0 0 387 40" fill="none" xmlns="http://www.w3.org/2000/svg">
<path d="M0.586648 39V2.63636H7.17401V18.0305H24.0241V2.63636H30.6293V39H24.0241V23.5526H7.17401V39H0.586648ZM49.4059 39.5327C46.7425 39.5327 44.4343 38.9467 42.4812 37.7749C40.5281 36.603 39.0129 34.9635 37.9357 32.8565C36.8704 30.7495 36.3377 28.2874 36.3377 25.4702C36.3377 22.6529 36.8704 20.1849 37.9357 18.0661C39.0129 15.9472 40.5281 14.3018 42.4812 13.13C44.4343 11.9581 46.7425 11.3722 49.4059 11.3722C52.0692 11.3722 54.3775 11.9581 56.3306 13.13C58.2837 14.3018 59.793 15.9472 60.8583 18.0661C61.9355 20.1849 62.4741 22.6529 62.4741 25.4702C62.4741 28.2874 61.9355 30.7495 60.8583 32.8565C59.793 34.9635 58.2837 36.603 56.3306 37.7749C54.3775 38.9467 52.0692 39.5327 49.4059 39.5327ZM49.4414 34.3835C50.8855 34.3835 52.0929 33.987 53.0636 33.1939C54.0342 32.389 54.7563 31.3118 55.2298 29.9624C55.7151 28.6129 55.9577 27.1096 55.9577 25.4524C55.9577 23.7834 55.7151 22.2741 55.2298 20.9247C54.7563 19.5634 54.0342 18.4804 53.0636 17.6754C52.0929 16.8705 50.8855 16.468 49.4414 16.468C47.9618 16.468 46.7307 16.8705 45.7482 17.6754C44.7776 18.4804 44.0496 19.5634 43.5643 20.9247C43.0908 22.2741 42.854 23.7834 42.854 25.4524C42.854 27.1096 43.0908 28.6129 43.5643 29.9624C44.0496 31.3118 44.7776 32.389 45.7482 33.1939C46.7307 33.987 47.9618 34.3835 49.4414 34.3835ZM67.9295 39V11.7273H74.1618V16.2727H74.4458C74.943 14.6984 75.7953 13.4851 77.0027 12.6328C78.2219 11.7687 79.6127 11.3366 81.1752 11.3366C81.5304 11.3366 81.9269 11.3544 82.3649 11.3899C82.8147 11.4136 83.1876 11.455 83.4835 11.5142V17.4268C83.2112 17.3321 82.7792 17.2493 82.1873 17.1783C81.6073 17.0954 81.045 17.054 80.5005 17.054C79.3287 17.054 78.2752 17.3085 77.34 17.8175C76.4167 18.3146 75.6887 19.0071 75.1561 19.8949C74.6234 20.7827 74.3571 21.8066 74.3571 22.9666V39H67.9295ZM87.7537 39V11.7273H94.1813V39H87.7537ZM90.9853 7.85653C89.9673 7.85653 89.0913 7.51918 88.3574 6.84446C87.6235 6.15791 87.2566 5.33523 87.2566 4.37642C87.2566 3.40578 87.6235 2.58309 88.3574 1.90838C89.0913 1.22183 89.9673 0.87855 90.9853 0.87855C92.0151 0.87855 92.891 1.22183 93.6131 1.90838C94.347 2.58309 94.714 3.40578 94.714 4.37642C94.714 5.33523 94.347 6.15791 93.6131 6.84446C92.891 7.51918 92.0151 7.85653 90.9853 7.85653ZM100.436 39V34.9162L114.498 17.2848V17.054H100.897V11.7273H122.364V16.1129L108.976 33.4425V33.6733H122.826V39H100.436ZM139.982 39.5327C137.319 39.5327 135.01 38.9467 133.057 37.7749C131.104 36.603 129.589 34.9635 128.512 32.8565C127.447 30.7495 126.914 28.2874 126.914 25.4702C126.914 22.6529 127.447 20.1849 128.512 18.0661C129.589 15.9472 131.104 14.3018 133.057 13.13C135.01 11.9581 137.319 11.3722 139.982 11.3722C142.645 11.3722 144.954 11.9581 146.907 13.13C148.86 14.3018 150.369 15.9472 151.434 18.0661C152.512 20.1849 153.05 22.6529 153.05 25.4702C153.05 28.2874 152.512 30.7495 151.434 32.8565C150.369 34.9635 148.86 36.603 146.907 37.7749C144.954 38.9467 142.645 39.5327 139.982 39.5327ZM140.018 34.3835C141.462 34.3835 142.669 33.987 143.64 33.1939C144.61 32.389 145.332 31.3118 145.806 29.9624C146.291 28.6129 146.534 27.1096 146.534 25.4524C146.534 23.7834 146.291 22.2741 145.806 20.9247C145.332 19.5634 144.61 18.4804 143.64 17.6754C142.669 16.8705 141.462 16.468 140.018 16.468C138.538 16.468 137.307 16.8705 136.324 17.6754C135.354 18.4804 134.626 19.5634 134.14 20.9247C133.667 22.2741 133.43 23.7834 133.43 25.4524C133.43 27.1096 133.667 28.6129 134.14 29.9624C134.626 31.3118 135.354 32.389 136.324 33.1939C137.307 33.987 138.538 34.3835 140.018 34.3835ZM164.933 23.0199V39H158.506V11.7273H164.649V16.3615H164.969C165.596 14.8345 166.596 13.6212 167.969 12.7216C169.354 11.822 171.065 11.3722 173.101 11.3722C174.983 11.3722 176.622 11.7746 178.019 12.5795C179.428 13.3845 180.517 14.5504 181.286 16.0774C182.067 17.6044 182.452 19.4569 182.44 21.6349V39H176.013V22.6293C176.013 20.8063 175.539 19.38 174.592 18.3501C173.657 17.3203 172.361 16.8054 170.704 16.8054C169.579 16.8054 168.579 17.054 167.703 17.5511C166.839 18.0365 166.158 18.7408 165.661 19.6641C165.176 20.5874 164.933 21.706 164.933 23.0199ZM201.661 39V2.63636H224.956V8.15838H208.248V18.0305H223.358V23.5526H208.248V39H201.661ZM230.674 39V11.7273H237.101V39H230.674ZM233.905 7.85653C232.887 7.85653 232.011 7.51918 231.277 6.84446C230.543 6.15791 230.176 5.33523 230.176 4.37642C230.176 3.40578 230.543 2.58309 231.277 1.90838C232.011 1.22183 232.887 0.87855 233.905 0.87855C234.935 0.87855 235.811 1.22183 236.533 1.90838C237.267 2.58309 237.634 3.40578 237.634 4.37642C237.634 5.33523 237.267 6.15791 236.533 6.84446C235.811 7.51918 234.935 7.85653 233.905 7.85653ZM250.138 23.0199V39H243.711V11.7273H249.854V16.3615H250.174C250.801 14.8345 251.801 13.6212 253.175 12.7216C254.559 11.822 256.27 11.3722 258.306 11.3722C260.188 11.3722 261.827 11.7746 263.224 12.5795C264.633 13.3845 265.722 14.5504 266.491 16.0774C267.273 17.6044 267.657 19.4569 267.645 21.6349V39H261.218V22.6293C261.218 20.8063 260.744 19.38 259.797 18.3501C258.862 17.3203 257.566 16.8054 255.909 16.8054C254.784 16.8054 253.784 17.054 252.908 17.5511C252.044 18.0365 251.363 18.7408 250.866 19.6641C250.381 20.5874 250.138 21.706 250.138 23.0199ZM282.028 39.5504C280.299 39.5504 278.743 39.2427 277.358 38.6271C275.985 37.9998 274.896 37.0765 274.091 35.8572C273.298 34.638 272.901 33.1347 272.901 31.3473C272.901 29.8085 273.185 28.536 273.753 27.5298C274.322 26.5237 275.097 25.7188 276.079 25.1151C277.062 24.5114 278.169 24.0556 279.4 23.7479C280.643 23.4283 281.927 23.1974 283.253 23.0554C284.851 22.8897 286.147 22.7417 287.141 22.6115C288.135 22.4695 288.858 22.2564 289.307 21.9723C289.769 21.6764 290 21.2206 290 20.6051V20.4986C290 19.161 289.603 18.1252 288.81 17.3913C288.017 16.6574 286.875 16.2905 285.383 16.2905C283.809 16.2905 282.56 16.6338 281.637 17.3203C280.725 18.0069 280.11 18.8177 279.79 19.7528L273.789 18.9006C274.262 17.2434 275.044 15.8584 276.133 14.7457C277.222 13.6212 278.553 12.7808 280.128 12.2244C281.702 11.6562 283.442 11.3722 285.348 11.3722C286.662 11.3722 287.97 11.526 289.272 11.8338C290.574 12.1416 291.764 12.6506 292.841 13.3608C293.918 14.0592 294.782 15.0121 295.433 16.2195C296.096 17.4268 296.427 18.9361 296.427 20.7472V39H290.248V35.2536H290.035C289.645 36.0111 289.094 36.7214 288.384 37.3842C287.686 38.0353 286.804 38.562 285.738 38.9645C284.685 39.3551 283.448 39.5504 282.028 39.5504ZM283.697 34.8274C284.987 34.8274 286.105 34.5729 287.052 34.0639C287.999 33.5431 288.727 32.8565 289.236 32.0043C289.757 31.152 290.018 30.2228 290.018 29.2166V26.0028C289.816 26.1686 289.473 26.3224 288.988 26.4645C288.514 26.6065 287.982 26.7308 287.39 26.8374C286.798 26.9439 286.212 27.0386 285.632 27.1214C285.052 27.2043 284.549 27.2753 284.123 27.3345C283.164 27.4647 282.306 27.6778 281.548 27.9737C280.791 28.2696 280.193 28.6839 279.755 29.2166C279.317 29.7375 279.098 30.4122 279.098 31.2408C279.098 32.4245 279.53 33.3182 280.394 33.9219C281.258 34.5256 282.359 34.8274 283.697 34.8274ZM309.318 23.0199V39H302.89V11.7273H309.034V16.3615H309.354C309.981 14.8345 310.981 13.6212 312.354 12.7216C313.739 11.822 315.45 11.3722 317.486 11.3722C319.368 11.3722 321.007 11.7746 322.404 12.5795C323.813 13.3845 324.902 14.5504 325.671 16.0774C326.452 17.6044 326.837 19.4569 326.825 21.6349V39H320.398V22.6293C320.398 20.8063 319.924 19.38 318.977 18.3501C318.042 17.3203 316.746 16.8054 315.089 16.8054C313.964 16.8054 312.964 17.054 312.088 17.5511C311.224 18.0365 310.543 18.7408 310.046 19.6641C309.561 20.5874 309.318 21.706 309.318 23.0199ZM345.256 39.5327C342.533 39.5327 340.195 38.9349 338.242 37.7393C336.301 36.5438 334.803 34.8925 333.75 32.7855C332.708 30.6667 332.187 28.2282 332.187 25.4702C332.187 22.7003 332.72 20.2559 333.785 18.1371C334.851 16.0064 336.354 14.3492 338.295 13.1655C340.248 11.9699 342.557 11.3722 345.22 11.3722C347.434 11.3722 349.393 11.7805 351.097 12.5973C352.814 13.4022 354.181 14.5445 355.199 16.0241C356.217 17.492 356.797 19.2083 356.939 21.1733H350.795C350.547 19.8594 349.955 18.7644 349.02 17.8885C348.096 17.0007 346.859 16.5568 345.309 16.5568C343.995 16.5568 342.841 16.9119 341.846 17.6222C340.852 18.3205 340.077 19.3267 339.52 20.6406C338.976 21.9545 338.704 23.5289 338.704 25.3636C338.704 27.2221 338.976 28.8201 339.52 30.1577C340.065 31.4834 340.828 32.5073 341.811 33.2294C342.805 33.9396 343.971 34.2947 345.309 34.2947C346.256 34.2947 347.102 34.1172 347.848 33.7621C348.605 33.3951 349.239 32.8684 349.748 32.1818C350.257 31.4953 350.606 30.6607 350.795 29.6783H356.939C356.785 31.6077 356.217 33.3182 355.234 34.8097C354.252 36.2893 352.914 37.4493 351.221 38.2898C349.529 39.1184 347.54 39.5327 345.256 39.5327ZM374.29 39.5327C371.556 39.5327 369.195 38.9645 367.206 37.8281C365.229 36.6799 363.708 35.0582 362.643 32.9631C361.577 30.8561 361.045 28.3762 361.045 25.5234C361.045 22.718 361.577 20.2559 362.643 18.1371C363.72 16.0064 365.223 14.3492 367.153 13.1655C369.082 11.9699 371.349 11.3722 373.953 11.3722C375.634 11.3722 377.22 11.6444 378.712 12.1889C380.215 12.7216 381.541 13.5502 382.689 14.6747C383.849 15.7992 384.76 17.2315 385.423 18.9716C386.086 20.6998 386.418 22.7595 386.418 25.1506V27.1214H364.063V22.7891H380.256C380.245 21.558 379.978 20.4631 379.457 19.5043C378.937 18.5336 378.209 17.7701 377.273 17.2138C376.35 16.6574 375.273 16.3793 374.042 16.3793C372.728 16.3793 371.574 16.6989 370.58 17.3381C369.585 17.9654 368.81 18.794 368.254 19.8239C367.709 20.8419 367.431 21.9605 367.419 23.1797V26.9616C367.419 28.5478 367.709 29.9091 368.289 31.0455C368.869 32.17 369.68 33.0341 370.722 33.6378C371.763 34.2296 372.982 34.5256 374.379 34.5256C375.314 34.5256 376.161 34.3954 376.918 34.1349C377.676 33.8627 378.333 33.4661 378.889 32.9453C379.446 32.4245 379.866 31.7794 380.15 31.0099L386.151 31.6847C385.772 33.2708 385.05 34.6558 383.985 35.8395C382.932 37.0114 381.582 37.9228 379.937 38.5739C378.291 39.2131 376.409 39.5327 374.29 39.5327Z" fill="#9E9E9E"/>
</svg>
