<svg width="234" height="50" viewBox="0 0 234 50" fill="none" xmlns="http://www.w3.org/2000/svg">
<path d="M0.590909 49V2.45454H9.02273V22.1591H30.5909V2.45454H39.0455V49H30.5909V29.2273H9.02273V49H0.590909ZM63.0795 49.6818C59.6705 49.6818 56.7159 48.9318 54.2159 47.4318C51.7159 45.9318 49.7765 43.8333 48.3977 41.1364C47.0341 38.4394 46.3523 35.2879 46.3523 31.6818C46.3523 28.0758 47.0341 24.9167 48.3977 22.2045C49.7765 19.4924 51.7159 17.3864 54.2159 15.8864C56.7159 14.3864 59.6705 13.6364 63.0795 13.6364C66.4886 13.6364 69.4432 14.3864 71.9432 15.8864C74.4432 17.3864 76.375 19.4924 77.7386 22.2045C79.1174 24.9167 79.8068 28.0758 79.8068 31.6818C79.8068 35.2879 79.1174 38.4394 77.7386 41.1364C76.375 43.8333 74.4432 45.9318 71.9432 47.4318C69.4432 48.9318 66.4886 49.6818 63.0795 49.6818ZM63.125 43.0909C64.9735 43.0909 66.5189 42.5833 67.7614 41.5682C69.0038 40.5379 69.928 39.1591 70.5341 37.4318C71.1553 35.7045 71.4659 33.7803 71.4659 31.6591C71.4659 29.5227 71.1553 27.5909 70.5341 25.8636C69.928 24.1212 69.0038 22.7348 67.7614 21.7045C66.5189 20.6742 64.9735 20.1591 63.125 20.1591C61.2311 20.1591 59.6553 20.6742 58.3977 21.7045C57.1553 22.7348 56.2235 24.1212 55.6023 25.8636C54.9962 27.5909 54.6932 29.5227 54.6932 31.6591C54.6932 33.7803 54.9962 35.7045 55.6023 37.4318C56.2235 39.1591 57.1553 40.5379 58.3977 41.5682C59.6553 42.5833 61.2311 43.0909 63.125 43.0909ZM86.7898 49V14.0909H94.767V19.9091H95.1307C95.767 17.8939 96.858 16.3409 98.4034 15.25C99.964 14.1439 101.744 13.5909 103.744 13.5909C104.199 13.5909 104.706 13.6136 105.267 13.6591C105.843 13.6894 106.32 13.7424 106.699 13.8182V21.3864C106.35 21.2652 105.797 21.1591 105.04 21.0682C104.297 20.9621 103.578 20.9091 102.881 20.9091C101.381 20.9091 100.032 21.2348 98.8352 21.8864C97.6534 22.5227 96.7216 23.4091 96.0398 24.5455C95.358 25.6818 95.017 26.9924 95.017 28.4773V49H86.7898ZM112.165 49V14.0909H120.392V49H112.165ZM116.301 9.13636C114.998 9.13636 113.877 8.70455 112.938 7.84091C111.998 6.96212 111.528 5.90909 111.528 4.68182C111.528 3.43939 111.998 2.38636 112.938 1.52272C113.877 0.643937 114.998 0.204544 116.301 0.204544C117.619 0.204544 118.741 0.643937 119.665 1.52272C120.604 2.38636 121.074 3.43939 121.074 4.68182C121.074 5.90909 120.604 6.96212 119.665 7.84091C118.741 8.70455 117.619 9.13636 116.301 9.13636ZM128.398 49V43.7727L146.398 21.2045V20.9091H128.989V14.0909H156.466V19.7045L139.33 41.8864V42.1818H157.057V49H128.398ZM179.017 49.6818C175.608 49.6818 172.653 48.9318 170.153 47.4318C167.653 45.9318 165.714 43.8333 164.335 41.1364C162.972 38.4394 162.29 35.2879 162.29 31.6818C162.29 28.0758 162.972 24.9167 164.335 22.2045C165.714 19.4924 167.653 17.3864 170.153 15.8864C172.653 14.3864 175.608 13.6364 179.017 13.6364C182.426 13.6364 185.381 14.3864 187.881 15.8864C190.381 17.3864 192.313 19.4924 193.676 22.2045C195.055 24.9167 195.744 28.0758 195.744 31.6818C195.744 35.2879 195.055 38.4394 193.676 41.1364C192.313 43.8333 190.381 45.9318 187.881 47.4318C185.381 48.9318 182.426 49.6818 179.017 49.6818ZM179.062 43.0909C180.911 43.0909 182.456 42.5833 183.699 41.5682C184.941 40.5379 185.866 39.1591 186.472 37.4318C187.093 35.7045 187.403 33.7803 187.403 31.6591C187.403 29.5227 187.093 27.5909 186.472 25.8636C185.866 24.1212 184.941 22.7348 183.699 21.7045C182.456 20.6742 180.911 20.1591 179.062 20.1591C177.169 20.1591 175.593 20.6742 174.335 21.7045C173.093 22.7348 172.161 24.1212 171.54 25.8636C170.934 27.5909 170.631 29.5227 170.631 31.6591C170.631 33.7803 170.934 35.7045 171.54 37.4318C172.161 39.1591 173.093 40.5379 174.335 41.5682C175.593 42.5833 177.169 43.0909 179.062 43.0909ZM210.955 28.5455V49H202.727V14.0909H210.591V20.0227H211C211.803 18.0682 213.083 16.5152 214.841 15.3636C216.614 14.2121 218.803 13.6364 221.409 13.6364C223.818 13.6364 225.917 14.1515 227.705 15.1818C229.508 16.2121 230.902 17.7045 231.886 19.6591C232.886 21.6136 233.379 23.9848 233.364 26.7727V49H225.136V28.0455C225.136 25.7121 224.53 23.8864 223.318 22.5682C222.121 21.25 220.462 20.5909 218.341 20.5909C216.902 20.5909 215.621 20.9091 214.5 21.5455C213.394 22.1667 212.523 23.0682 211.886 24.25C211.265 25.4318 210.955 26.8636 210.955 28.5455Z" fill="#9E9E9E"/>
</svg>
