<svg width="388" height="40" viewBox="0 0 388 40" fill="none" xmlns="http://www.w3.org/2000/svg">
<path d="M0.988636 8.15838V2.63636H30.0014V8.15838H18.7621V39H12.228V8.15838H0.988636ZM32.4783 39V11.7273H38.7106V16.2727H38.9947C39.4918 14.6984 40.3441 13.4851 41.5515 12.6328C42.7707 11.7687 44.1616 11.3366 45.7241 11.3366C46.0792 11.3366 46.4757 11.3544 46.9137 11.3899C47.3635 11.4136 47.7364 11.455 48.0323 11.5142V17.4268C47.7601 17.3321 47.328 17.2493 46.7362 17.1783C46.1561 17.0954 45.5939 17.054 45.0494 17.054C43.8775 17.054 42.824 17.3085 41.8888 17.8175C40.9656 18.3146 40.2376 19.0071 39.7049 19.8949C39.1722 20.7827 38.9059 21.8066 38.9059 22.9666V39H32.4783ZM69.6854 27.5298V11.7273H76.1129V39H69.8807V34.1527H69.5966C68.9811 35.6797 67.969 36.9285 66.5604 37.8991C65.1636 38.8698 63.4413 39.3551 61.3935 39.3551C59.6061 39.3551 58.0258 38.9586 56.6527 38.1655C55.2914 37.3606 54.2261 36.1946 53.4567 34.6676C52.6873 33.1288 52.3026 31.2704 52.3026 29.0923V11.7273H58.7301V28.098C58.7301 29.8262 59.2036 31.1993 60.1506 32.2173C61.0975 33.2353 62.3404 33.7443 63.8793 33.7443C64.8262 33.7443 65.7436 33.5135 66.6314 33.0518C67.5192 32.5902 68.2472 31.9036 68.8153 30.9922C69.3954 30.0689 69.6854 28.9148 69.6854 27.5298ZM104.278 18.9361L98.4185 19.5753C98.2528 18.9834 97.9628 18.4271 97.5485 17.9062C97.146 17.3854 96.6015 16.9652 95.915 16.6456C95.2284 16.326 94.388 16.1662 93.3936 16.1662C92.056 16.1662 90.9315 16.4562 90.0201 17.0362C89.1204 17.6162 88.6766 18.3679 88.6884 19.2912C88.6766 20.0843 88.9666 20.7294 89.5584 21.2266C90.1621 21.7237 91.1564 22.1321 92.5414 22.4517L97.1934 23.446C99.7739 24.0024 101.691 24.8842 102.946 26.0916C104.213 27.299 104.852 28.8793 104.864 30.8324C104.852 32.5488 104.349 34.0639 103.355 35.3778C102.372 36.6799 101.005 37.6979 99.253 38.4318C97.5011 39.1657 95.4888 39.5327 93.2161 39.5327C89.878 39.5327 87.191 38.8343 85.155 37.4375C83.119 36.0289 81.9057 34.0698 81.5151 31.5604L87.7828 30.9567C88.0669 32.1877 88.6706 33.117 89.5939 33.7443C90.5172 34.3717 91.7187 34.6854 93.1983 34.6854C94.7253 34.6854 95.9505 34.3717 96.8738 33.7443C97.8089 33.117 98.2765 32.3416 98.2765 31.4183C98.2765 30.6371 97.9746 29.992 97.3709 29.483C96.7791 28.974 95.8558 28.5833 94.601 28.3111L89.949 27.3345C87.333 26.79 85.3977 25.8726 84.1429 24.5824C82.8882 23.2803 82.2667 21.6349 82.2786 19.6463C82.2667 17.9654 82.7225 16.5095 83.6458 15.2784C84.5809 14.0355 85.8771 13.0767 87.5343 12.402C89.2033 11.7154 91.1268 11.3722 93.3049 11.3722C96.5009 11.3722 99.0163 12.0528 100.851 13.4141C102.698 14.7753 103.84 16.616 104.278 18.9361ZM123.782 11.7273V16.6989H108.104V11.7273H123.782ZM111.975 5.19318H118.403V30.7969C118.403 31.661 118.533 32.3239 118.793 32.7855C119.065 33.2353 119.421 33.5431 119.858 33.7088C120.296 33.8745 120.782 33.9574 121.314 33.9574C121.717 33.9574 122.084 33.9278 122.415 33.8686C122.759 33.8094 123.019 33.7562 123.197 33.7088L124.28 38.7337C123.936 38.852 123.445 38.9822 122.806 39.1243C122.179 39.2663 121.409 39.3492 120.498 39.3729C118.888 39.4202 117.438 39.1776 116.148 38.6449C114.857 38.1004 113.833 37.2599 113.076 36.1236C112.33 34.9872 111.963 33.5668 111.975 31.8622V5.19318ZM140.939 39.5327C138.205 39.5327 135.843 38.9645 133.854 37.8281C131.878 36.6799 130.357 35.0582 129.291 32.9631C128.226 30.8561 127.693 28.3762 127.693 25.5234C127.693 22.718 128.226 20.2559 129.291 18.1371C130.368 16.0064 131.872 14.3492 133.801 13.1655C135.731 11.9699 137.997 11.3722 140.602 11.3722C142.282 11.3722 143.869 11.6444 145.36 12.1889C146.863 12.7216 148.189 13.5502 149.337 14.6747C150.497 15.7992 151.409 17.2315 152.072 18.9716C152.735 20.6998 153.066 22.7595 153.066 25.1506V27.1214H130.712V22.7891H146.905C146.893 21.558 146.627 20.4631 146.106 19.5043C145.585 18.5336 144.857 17.7701 143.922 17.2138C142.999 16.6574 141.921 16.3793 140.69 16.3793C139.376 16.3793 138.222 16.6989 137.228 17.3381C136.234 17.9654 135.458 18.794 134.902 19.8239C134.357 20.8419 134.079 21.9605 134.067 23.1797V26.9616C134.067 28.5478 134.357 29.9091 134.938 31.0455C135.518 32.17 136.328 33.0341 137.37 33.6378C138.412 34.2296 139.631 34.5256 141.028 34.5256C141.963 34.5256 142.809 34.3954 143.567 34.1349C144.324 33.8627 144.981 33.4661 145.538 32.9453C146.094 32.4245 146.514 31.7794 146.798 31.0099L152.8 31.6847C152.421 33.2708 151.699 34.6558 150.634 35.8395C149.58 37.0114 148.231 37.9228 146.585 38.5739C144.94 39.2131 143.058 39.5327 140.939 39.5327ZM168.624 39.4794C166.482 39.4794 164.564 38.929 162.872 37.8281C161.179 36.7273 159.841 35.1293 158.859 33.0341C157.876 30.9389 157.385 28.3939 157.385 25.3991C157.385 22.3688 157.882 19.812 158.877 17.7287C159.883 15.6335 161.238 14.0533 162.943 12.9879C164.647 11.9107 166.547 11.3722 168.642 11.3722C170.24 11.3722 171.554 11.6444 172.584 12.1889C173.614 12.7216 174.431 13.3667 175.034 14.1243C175.638 14.87 176.106 15.5743 176.437 16.2372H176.703V2.63636H183.149V39H176.828V34.7031H176.437C176.106 35.366 175.626 36.0703 174.999 36.8161C174.371 37.55 173.543 38.1773 172.513 38.6982C171.483 39.219 170.187 39.4794 168.624 39.4794ZM170.418 34.206C171.779 34.206 172.939 33.839 173.898 33.1051C174.857 32.3594 175.585 31.3236 176.082 29.9979C176.579 28.6721 176.828 27.1274 176.828 25.3636C176.828 23.5999 176.579 22.067 176.082 20.7649C175.597 19.4628 174.874 18.4508 173.916 17.7287C172.969 17.0066 171.803 16.6456 170.418 16.6456C168.986 16.6456 167.79 17.0185 166.831 17.7642C165.872 18.5099 165.15 19.5398 164.665 20.8537C164.18 22.1676 163.937 23.6709 163.937 25.3636C163.937 27.0682 164.18 28.5893 164.665 29.9268C165.162 31.2526 165.89 32.3002 166.849 33.0696C167.82 33.8272 169.009 34.206 170.418 34.206ZM202.684 39V2.63636H225.98V8.15838H209.272V18.0305H224.382V23.5526H209.272V39H202.684ZM231.697 39V11.7273H238.125V39H231.697ZM234.929 7.85653C233.911 7.85653 233.035 7.51918 232.301 6.84446C231.567 6.15791 231.2 5.33523 231.2 4.37642C231.2 3.40578 231.567 2.58309 232.301 1.90838C233.035 1.22183 233.911 0.87855 234.929 0.87855C235.958 0.87855 236.834 1.22183 237.556 1.90838C238.29 2.58309 238.657 3.40578 238.657 4.37642C238.657 5.33523 238.29 6.15791 237.556 6.84446C236.834 7.51918 235.958 7.85653 234.929 7.85653ZM251.162 23.0199V39H244.734V11.7273H250.878V16.3615H251.197C251.825 14.8345 252.825 13.6212 254.198 12.7216C255.583 11.822 257.293 11.3722 259.329 11.3722C261.211 11.3722 262.851 11.7746 264.248 12.5795C265.656 13.3845 266.745 14.5504 267.515 16.0774C268.296 17.6044 268.681 19.4569 268.669 21.6349V39H262.241V22.6293C262.241 20.8063 261.768 19.38 260.821 18.3501C259.886 17.3203 258.59 16.8054 256.932 16.8054C255.808 16.8054 254.808 17.054 253.932 17.5511C253.068 18.0365 252.387 18.7408 251.89 19.6641C251.404 20.5874 251.162 21.706 251.162 23.0199ZM283.051 39.5504C281.323 39.5504 279.766 39.2427 278.381 38.6271C277.008 37.9998 275.919 37.0765 275.114 35.8572C274.321 34.638 273.925 33.1347 273.925 31.3473C273.925 29.8085 274.209 28.536 274.777 27.5298C275.345 26.5237 276.12 25.7188 277.103 25.1151C278.085 24.5114 279.192 24.0556 280.423 23.7479C281.666 23.4283 282.95 23.1974 284.276 23.0554C285.874 22.8897 287.17 22.7417 288.165 22.6115C289.159 22.4695 289.881 22.2564 290.331 21.9723C290.792 21.6764 291.023 21.2206 291.023 20.6051V20.4986C291.023 19.161 290.627 18.1252 289.834 17.3913C289.041 16.6574 287.898 16.2905 286.407 16.2905C284.832 16.2905 283.584 16.6338 282.66 17.3203C281.749 18.0069 281.133 18.8177 280.814 19.7528L274.812 18.9006C275.286 17.2434 276.067 15.8584 277.156 14.7457C278.245 13.6212 279.577 12.7808 281.151 12.2244C282.725 11.6562 284.465 11.3722 286.371 11.3722C287.685 11.3722 288.993 11.526 290.295 11.8338C291.597 12.1416 292.787 12.6506 293.864 13.3608C294.941 14.0592 295.805 15.0121 296.456 16.2195C297.119 17.4268 297.451 18.9361 297.451 20.7472V39H291.272V35.2536H291.059C290.668 36.0111 290.118 36.7214 289.407 37.3842C288.709 38.0353 287.827 38.562 286.762 38.9645C285.708 39.3551 284.471 39.5504 283.051 39.5504ZM284.72 34.8274C286.01 34.8274 287.129 34.5729 288.076 34.0639C289.023 33.5431 289.751 32.8565 290.26 32.0043C290.781 31.152 291.041 30.2228 291.041 29.2166V26.0028C290.84 26.1686 290.497 26.3224 290.011 26.4645C289.538 26.6065 289.005 26.7308 288.413 26.8374C287.821 26.9439 287.235 27.0386 286.655 27.1214C286.075 27.2043 285.572 27.2753 285.146 27.3345C284.187 27.4647 283.329 27.6778 282.572 27.9737C281.814 28.2696 281.216 28.6839 280.778 29.2166C280.34 29.7375 280.121 30.4122 280.121 31.2408C280.121 32.4245 280.553 33.3182 281.417 33.9219C282.282 34.5256 283.382 34.8274 284.72 34.8274ZM310.341 23.0199V39H303.914V11.7273H310.057V16.3615H310.377C311.004 14.8345 312.005 13.6212 313.378 12.7216C314.763 11.822 316.473 11.3722 318.509 11.3722C320.391 11.3722 322.031 11.7746 323.427 12.5795C324.836 13.3845 325.925 14.5504 326.694 16.0774C327.476 17.6044 327.86 19.4569 327.849 21.6349V39H321.421V22.6293C321.421 20.8063 320.948 19.38 320.001 18.3501C319.065 17.3203 317.769 16.8054 316.112 16.8054C314.988 16.8054 313.987 17.054 313.111 17.5511C312.247 18.0365 311.567 18.7408 311.069 19.6641C310.584 20.5874 310.341 21.706 310.341 23.0199ZM346.279 39.5327C343.556 39.5327 341.219 38.9349 339.265 37.7393C337.324 36.5438 335.827 34.8925 334.773 32.7855C333.732 30.6667 333.211 28.2282 333.211 25.4702C333.211 22.7003 333.743 20.2559 334.809 18.1371C335.874 16.0064 337.377 14.3492 339.319 13.1655C341.272 11.9699 343.58 11.3722 346.243 11.3722C348.457 11.3722 350.416 11.7805 352.121 12.5973C353.837 13.4022 355.204 14.5445 356.222 16.0241C357.24 17.492 357.82 19.2083 357.962 21.1733H351.819C351.57 19.8594 350.978 18.7644 350.043 17.8885C349.12 17.0007 347.883 16.5568 346.332 16.5568C345.018 16.5568 343.864 16.9119 342.87 17.6222C341.876 18.3205 341.1 19.3267 340.544 20.6406C339.999 21.9545 339.727 23.5289 339.727 25.3636C339.727 27.2221 339.999 28.8201 340.544 30.1577C341.088 31.4834 341.852 32.5073 342.834 33.2294C343.829 33.9396 344.995 34.2947 346.332 34.2947C347.279 34.2947 348.126 34.1172 348.871 33.7621C349.629 33.3951 350.262 32.8684 350.771 32.1818C351.28 31.4953 351.629 30.6607 351.819 29.6783H357.962C357.808 31.6077 357.24 33.3182 356.258 34.8097C355.275 36.2893 353.938 37.4493 352.245 38.2898C350.552 39.1184 348.564 39.5327 346.279 39.5327ZM375.314 39.5327C372.58 39.5327 370.218 38.9645 368.229 37.8281C366.253 36.6799 364.732 35.0582 363.666 32.9631C362.601 30.8561 362.068 28.3762 362.068 25.5234C362.068 22.718 362.601 20.2559 363.666 18.1371C364.743 16.0064 366.247 14.3492 368.176 13.1655C370.106 11.9699 372.372 11.3722 374.977 11.3722C376.657 11.3722 378.244 11.6444 379.735 12.1889C381.238 12.7216 382.564 13.5502 383.712 14.6747C384.872 15.7992 385.784 17.2315 386.447 18.9716C387.11 20.6998 387.441 22.7595 387.441 25.1506V27.1214H365.087V22.7891H381.28C381.268 21.558 381.002 20.4631 380.481 19.5043C379.96 18.5336 379.232 17.7701 378.297 17.2138C377.374 16.6574 376.296 16.3793 375.065 16.3793C373.751 16.3793 372.597 16.6989 371.603 17.3381C370.609 17.9654 369.833 18.794 369.277 19.8239C368.732 20.8419 368.454 21.9605 368.442 23.1797V26.9616C368.442 28.5478 368.732 29.9091 369.312 31.0455C369.893 32.17 370.703 33.0341 371.745 33.6378C372.787 34.2296 374.006 34.5256 375.403 34.5256C376.338 34.5256 377.184 34.3954 377.942 34.1349C378.699 33.8627 379.356 33.4661 379.913 32.9453C380.469 32.4245 380.889 31.7794 381.173 31.0099L387.175 31.6847C386.796 33.2708 386.074 34.6558 385.009 35.8395C383.955 37.0114 382.606 37.9228 380.96 38.5739C379.315 39.2131 377.433 39.5327 375.314 39.5327Z" fill="#D30303"/>
</svg>
